<?xml version="1.0" encoding="UTF-8"?><svg id="a" xmlns="http://www.w3.org/2000/svg" xmlns:xlink="http://www.w3.org/1999/xlink" viewBox="0 0 370.21 77.27"><defs><style>.d{fill:#fff;}.e{fill:url(#c);}.f{fill:url(#b);}</style><linearGradient id="b" x1="0" y1="38.64" x2="77.27" y2="38.64" gradientTransform="matrix(1, 0, 0, 1, 0, 0)" gradientUnits="userSpaceOnUse"><stop offset="0" stop-color="#0761e2"/><stop offset=".39" stop-color="#0782f2"/><stop offset=".48" stop-color="#088bf7"/><stop offset="1" stop-color="#3eb1ff"/></linearGradient><linearGradient id="c" x1="19.69" y1="38.64" x2="57.58" y2="38.64" gradientTransform="matrix(1, 0, 0, 1, 0, 0)" gradientUnits="userSpaceOnUse"><stop offset="0" stop-color="#0761e2"/><stop offset=".4" stop-color="#0782f2"/><stop offset=".5" stop-color="#088bf7"/><stop offset=".65" stop-color="#0b8df7"/><stop offset=".78" stop-color="#1594f9"/><stop offset=".89" stop-color="#27a1fb"/><stop offset="1" stop-color="#3eb1ff"/></linearGradient></defs><g><path class="d" d="M103.75,30v8.73h10.96v-8.73h3.78v21.44h-3.78v-8.96h-10.96v8.96h-3.75V30h3.75Z"/><path class="d" d="M140.79,30v3.75h-10.73c-2.25,0-3.24,1.05-3.24,2.7,0,1.75,1.11,2.54,3.27,2.54h10.54v3.4h-10.64c-2.16,0-3.27,.86-3.27,2.6s1.05,2.7,3.24,2.7h10.86v3.75h-10.86c-5.08,0-7.15-2.51-7.15-5.84,0-2.45,1.11-4.1,3.08-4.92-2-.82-3.02-2.48-3.02-4.83,0-3.43,2.13-5.84,7.18-5.84h10.73Z"/><path class="d" d="M147.82,51.43h-4.13l7.53-19.05c.79-2,2.25-2.76,4.51-2.76s3.68,.76,4.45,2.76l7.24,19.05h-4.16l-6.51-17.24c-.19-.51-.54-.73-1.05-.73s-.86,.22-1.08,.73l-6.8,17.24Z"/><path class="d" d="M170.26,30l6.51,17.24c.19,.51,.54,.73,1.05,.73s.82-.22,1.05-.73l6.83-17.24h4.16l-7.56,19.05c-.79,2-2.25,2.76-4.48,2.76-2.1,0-3.72-.67-4.51-2.76l-7.18-19.05h4.13Z"/><path class="d" d="M196.03,30l6,9.18,6.07-9.18h4.45l-8.64,12.2v9.24h-3.78v-9.24l-8.64-12.2h4.54Z"/><path class="d" d="M233.39,30c6.26,0,9.65,3.49,9.65,10.73s-3.37,10.7-9.65,10.7h-7.56c-1.21,0-1.78-.57-1.78-1.75V31.74c0-1.18,.57-1.75,1.78-1.75h7.56Zm-5.59,17.31c0,.28,.13,.38,.41,.38h5.18c4.16,0,5.91-2.06,5.91-6.99s-1.75-6.95-5.91-6.95h-5.18c-.29,0-.41,.09-.41,.38v13.18Z"/><path class="d" d="M251.22,30v21.44h-3.75V30h3.75Z"/><path class="d" d="M258.53,30l6.51,17.24c.19,.51,.54,.73,1.05,.73s.82-.22,1.05-.73l6.83-17.24h4.16l-7.56,19.05c-.79,2-2.25,2.76-4.48,2.76-2.1,0-3.72-.67-4.51-2.76l-7.18-19.05h4.13Z"/><path class="d" d="M285.07,30v21.44h-3.75V30h3.75Z"/><path class="d" d="M306.79,30v3.75h-10.99c-1.94,0-2.8,1.05-2.8,2.54,0,1.3,.67,2.54,3.18,2.54h5.02c5.84,0,7.21,3.24,7.21,6.32,0,3.62-1.94,6.29-6.83,6.29h-11.94v-3.75h12.07c2.03,0,2.95-1.11,2.95-2.67,0-1.4-.73-2.67-3.37-2.67h-4.99c-5.72,0-7.05-3.21-7.05-6.19,0-3.56,1.9-6.16,6.67-6.16h10.86Z"/><path class="d" d="M316.33,30v21.44h-3.75V30h3.75Z"/><path class="d" d="M333.33,30c6.22,0,9.68,3.56,9.68,10.77s-3.43,10.67-9.68,10.67h-2.92c-6.26,0-9.69-3.49-9.69-10.67s3.46-10.77,9.69-10.77h2.92Zm-2.92,3.75c-4.13,0-5.94,2.1-5.94,7.02s1.78,6.92,5.94,6.92h2.92c4.13,0,5.91-2.03,5.91-6.95s-1.78-6.99-5.91-6.99h-2.92Z"/><path class="d" d="M351.16,51.43h-3.75v-17.15c0-2.79,1.59-4.67,4.92-4.67,2.99,0,4.32,1.52,5.21,3.97l6.26,13.69c.25,.51,.67,.89,1.37,.89,.79,0,1.27-.48,1.27-1.21V30h3.78v17.12c0,2.83-1.62,4.7-4.92,4.7-2.98,0-4.35-1.53-5.24-3.97l-6.26-13.69c-.28-.63-.67-.92-1.33-.92-.86,0-1.3,.48-1.3,1.24v16.96Z"/></g><path class="f" d="M38.64,77.27C17.33,77.27,0,59.94,0,38.64S17.33,0,38.64,0s38.64,17.33,38.64,38.64-17.33,38.64-38.64,38.64Zm0-70.17c-17.39,0-31.53,14.14-31.53,31.53s14.14,31.53,31.53,31.53,31.53-14.14,31.53-31.53S56.02,7.11,38.64,7.11Z"/><path class="e" d="M52.91,14.37l-1.44-1.44c-.15-.15-.38-.15-.53,0l-25.98,25.98c-7.03,7.03-7.03,18.42,0,25.45h0c.15,.15,.38,.15,.53,0l27.42-27.42c6.23-6.23,6.23-16.33,0-22.56Z"/></svg>