<?xml version="1.0" encoding="UTF-8"?><svg id="a" xmlns="http://www.w3.org/2000/svg" xmlns:xlink="http://www.w3.org/1999/xlink" viewBox="0 0 56.9 56.9"><defs><style>.d{fill:url(#c);}.e{fill:url(#b);}</style><linearGradient id="b" x1="0" y1="28.45" x2="56.9" y2="28.45" gradientTransform="matrix(1, 0, 0, 1, 0, 0)" gradientUnits="userSpaceOnUse"><stop offset="0" stop-color="#0761e2"/><stop offset=".39" stop-color="#0782f2"/><stop offset=".48" stop-color="#088bf7"/><stop offset="1" stop-color="#3eb1ff"/></linearGradient><linearGradient id="c" x1="14.5" y1="28.45" x2="42.4" y2="28.45" gradientTransform="matrix(1, 0, 0, 1, 0, 0)" gradientUnits="userSpaceOnUse"><stop offset="0" stop-color="#0761e2"/><stop offset=".4" stop-color="#0782f2"/><stop offset=".5" stop-color="#088bf7"/><stop offset=".65" stop-color="#0b8df7"/><stop offset=".78" stop-color="#1594f9"/><stop offset=".89" stop-color="#27a1fb"/><stop offset="1" stop-color="#3eb1ff"/></linearGradient></defs><path class="e" d="M28.45,56.9C12.76,56.9,0,44.14,0,28.45S12.76,0,28.45,0s28.45,12.76,28.45,28.45-12.76,28.45-28.45,28.45Zm0-51.67C15.65,5.23,5.23,15.65,5.23,28.45s10.42,23.22,23.22,23.22,23.22-10.42,23.22-23.22S41.26,5.23,28.45,5.23Z"/><path class="d" d="M38.96,10.58l-1.06-1.06c-.11-.11-.28-.11-.39,0L18.38,28.65c-5.17,5.17-5.17,13.56,0,18.74h0c.11,.11,.28,.11,.39,0l20.19-20.19c4.59-4.59,4.59-12.03,0-16.61Z"/></svg>