<svg width="549" height="100" viewBox="0 0 549 100" fill="none" xmlns="http://www.w3.org/2000/svg">
<rect width="549" height="100" fill="white"/>
<path d="M50 100C22.4382 100 0 77.5779 0 50C0 22.4221 22.4221 0 50 0C77.5779 0 100 22.4221 100 50C100 77.5779 77.5779 100 50 100ZM50 9.20331C27.4976 9.20331 9.20341 27.5137 9.20341 50C9.20341 72.4863 27.5137 90.7967 50 90.7967C72.4863 90.7967 90.7967 72.4863 90.7967 50C90.7967 27.5137 72.4863 9.20331 50 9.20331Z" fill="#09162F"/>
<path d="M69.0786 18.0127L67.2543 16.1449C67.0655 15.9517 66.7667 15.9517 66.578 16.1449L33.6763 49.8462C24.7746 58.9599 24.7746 73.7414 33.6763 82.8551C33.865 83.0483 34.1638 83.0483 34.3526 82.8551L69.0786 47.286C76.9738 39.2028 76.9738 26.0959 69.0786 18.0127Z" fill="#09162F"/>
<path d="M127.936 35.6V68H133.6V54.464H150.16V68H155.872V35.6H150.16V48.8H133.6V35.6H127.936ZM173.35 35.6C165.718 35.6 162.502 39.248 162.502 44.432C162.502 47.984 164.038 50.48 167.062 51.728C164.086 52.976 162.406 55.472 162.406 59.168C162.406 64.208 165.526 68 173.206 68H189.622V62.336H173.206C169.894 62.336 168.31 60.8 168.31 58.256C168.31 55.616 169.99 54.32 173.254 54.32H189.334V49.184H173.398C170.134 49.184 168.454 47.984 168.454 45.344C168.454 42.848 169.942 41.264 173.35 41.264H189.574V35.6H173.35ZM210.471 41.936C210.807 41.168 211.335 40.832 212.103 40.832C212.871 40.832 213.399 41.168 213.687 41.936L223.527 68H229.815L218.871 39.2C217.719 36.176 215.511 35.024 212.151 35.024C208.743 35.024 206.535 36.176 205.335 39.2L193.959 68H200.199L210.471 41.936ZM227.85 35.6L238.698 64.4C239.898 67.568 242.346 68.576 245.514 68.576C248.874 68.576 251.082 67.424 252.281 64.4L263.706 35.6H257.418L247.098 61.664C246.762 62.432 246.282 62.768 245.514 62.768C244.746 62.768 244.218 62.432 243.93 61.664L234.09 35.6H227.85ZM266.14 35.6L279.196 54.032V68H284.908V54.032L297.964 35.6H291.244L282.076 49.472L273.004 35.6H266.14ZM318.03 35.6C316.206 35.6 315.342 36.464 315.342 38.24V65.36C315.342 67.136 316.206 68 318.03 68H329.454C338.958 68 344.046 62.72 344.046 51.824C344.046 40.88 338.91 35.6 329.454 35.6H318.03ZM321.006 41.84C321.006 41.408 321.198 41.264 321.63 41.264H329.454C335.742 41.264 338.382 44.384 338.382 51.776C338.382 59.216 335.742 62.336 329.454 62.336H321.63C321.198 62.336 321.006 62.192 321.006 61.76V41.84ZM350.733 35.6V68H356.397V35.6H350.733ZM361.209 35.6L372.057 64.4C373.257 67.568 375.705 68.576 378.873 68.576C382.233 68.576 384.441 67.424 385.641 64.4L397.065 35.6H390.777L380.457 61.664C380.121 62.432 379.641 62.768 378.873 62.768C378.105 62.768 377.577 62.432 377.289 61.664L367.449 35.6H361.209ZM401.874 35.6V68H407.538V35.6H401.874ZM423.966 35.6C416.766 35.6 413.886 39.536 413.886 44.912C413.886 49.424 415.902 54.272 424.542 54.272H432.078C436.062 54.272 437.166 56.192 437.166 58.304C437.166 60.656 435.774 62.336 432.702 62.336H414.462V68H432.51C439.902 68 442.83 63.968 442.83 58.496C442.83 53.84 440.766 48.944 431.934 48.944H424.35C420.558 48.944 419.55 47.072 419.55 45.104C419.55 42.848 420.846 41.264 423.773 41.264H440.382V35.6H423.966ZM449.124 35.6V68H454.788V35.6H449.124ZM476.064 35.6C466.656 35.6 461.424 40.976 461.424 51.872C461.424 62.72 466.608 68 476.064 68H480.48C489.936 68 495.12 62.72 495.12 51.872C495.12 40.976 489.888 35.6 480.48 35.6H476.064ZM480.48 41.264C486.72 41.264 489.408 44.432 489.408 51.824C489.408 59.264 486.72 62.336 480.48 62.336H476.064C469.776 62.336 467.088 59.264 467.088 51.872C467.088 44.432 469.824 41.264 476.064 41.264H480.48ZM507.427 42.368C507.427 41.216 508.099 40.496 509.395 40.496C510.403 40.496 510.979 40.928 511.411 41.888L520.867 62.576C522.211 66.272 524.275 68.576 528.787 68.576C533.779 68.576 536.227 65.744 536.227 61.472V35.6H530.515V61.232C530.515 62.336 529.795 63.056 528.595 63.056C527.539 63.056 526.915 62.48 526.531 61.712L517.075 41.024C515.731 37.328 513.715 35.024 509.203 35.024C504.163 35.024 501.763 37.856 501.763 42.08V68H507.427V42.368Z" fill="#0D1426"/>
</svg>
